<?xml version="1.0" standalone="no"?>
<!DOCTYPE svg PUBLIC "-//W3C//DTD SVG 20010904//EN"
 "http://www.w3.org/TR/2001/REC-SVG-20010904/DTD/svg10.dtd">
<svg version="1.0" xmlns="http://www.w3.org/2000/svg"
 width="260.000000pt" height="260.000000pt" viewBox="0 0 260.000000 260.000000"
 preserveAspectRatio="xMidYMid meet">
<metadata>
Created by potrace 1.14, written by Peter Selinger 2001-2017
</metadata>
<g transform="translate(0.000000,260.000000) scale(0.100000,-0.100000)"
fill="#000000" stroke="none">
<path d="M920 2382 c-206 -120 -459 -266 -561 -325 l-185 -107 0 -650 1 -651
190 -110 c105 -61 213 -123 240 -138 28 -16 195 -112 373 -215 l323 -188 562
325 562 324 0 653 0 653 -185 107 c-102 58 -349 202 -550 318 -201 116 -372
213 -380 216 -8 3 -184 -93 -390 -212z"/>
</g>
</svg>
